<svg width="0" height="0" class="hidden">
    <symbol viewBox="0 0 24 24" xmlns="http://www.w3.org/2000/svg" xmlns:xlink="http://www.w3.org/1999/xlink" fill="currentcolor" stroke="none" stroke-width="1.5" stroke-linecap="round" stroke-linejoin="round" id="logo">
        <path d="M21 11H17.06C16.9903 10.9905 16.9197 10.9905 16.85 11H16.68C16.6277 11.0298 16.5776 11.0632 16.53 11.1C16.4743 11.1368 16.4209 11.1768 16.37 11.22C16.3366 11.2609 16.3065 11.3043 16.28 11.35C16.2342 11.413 16.194 11.4799 16.16 11.55V11.55L14.56 15.96L10.39 4.65999C10.3199 4.46693 10.1921 4.30014 10.0239 4.18227C9.85577 4.06439 9.65537 4.00116 9.45 4.00116C9.24463 4.00116 9.04423 4.06439 8.87605 4.18227C8.70788 4.30014 8.58007 4.46693 8.51 4.65999L6.2 11H3C2.73478 11 2.48043 11.1053 2.29289 11.2929C2.10536 11.4804 2 11.7348 2 12C2 12.2652 2.10536 12.5196 2.29289 12.7071C2.48043 12.8946 2.73478 13 3 13H6.92H7.15H7.3C7.35684 12.9726 7.4105 12.9391 7.46 12.9C7.51568 12.8632 7.56911 12.8231 7.62 12.78L7.71 12.65C7.75766 12.5882 7.79794 12.5211 7.83 12.45L9.45 7.91999L13.61 19.34C13.6799 19.5333 13.8076 19.7003 13.9758 19.8184C14.144 19.9365 14.3445 19.9999 14.55 20C14.7555 19.9999 14.956 19.9365 15.1242 19.8184C15.2924 19.7003 15.4201 19.5333 15.49 19.34L17.79 13H21C21.2652 13 21.5196 12.8946 21.7071 12.7071C21.8946 12.5196 22 12.2652 22 12C22 11.7348 21.8946 11.4804 21.7071 11.2929C21.5196 11.1053 21.2652 11 21 11Z"/>
    </symbol>
    <symbol viewBox="0 0 24 24" xmlns="http://www.w3.org/2000/svg" xmlns:xlink="http://www.w3.org/1999/xlink" fill="none" stroke="currentcolor" stroke-width="1.5" stroke-linecap="round" stroke-linejoin="round" id="icon-moon">
        <path d="M21 12.79A9 9 0 1 1 11.21 3 7 7 0 0 0 21 12.79z"></path>
    </symbol>
    <symbol viewBox="0 0 24 24" xmlns="http://www.w3.org/2000/svg" xmlns:xlink="http://www.w3.org/1999/xlink" fill="none" stroke="currentcolor" stroke-width="1.5" stroke-linecap="round" stroke-linejoin="round" id="icon-sun">
        <circle cx="12" cy="12" r="5"></circle><line x1="12" y1="1" x2="12" y2="3"></line><line x1="12" y1="21" x2="12" y2="23"></line><line x1="4.22" y1="4.22" x2="5.64" y2="5.64"></line><line x1="18.36" y1="18.36" x2="19.78" y2="19.78"></line><line x1="1" y1="12" x2="3" y2="12"></line><line x1="21" y1="12" x2="23" y2="12"></line><line x1="4.22" y1="19.78" x2="5.64" y2="18.36"></line><line x1="18.36" y1="5.64" x2="19.78" y2="4.22"></line>
    </symbol>
    <symbol viewBox="0 0 24 24" xmlns="http://www.w3.org/2000/svg" xmlns:xlink="http://www.w3.org/1999/xlink" fill="none" stroke="currentcolor" stroke-width="1.5" stroke-linecap="round" stroke-linejoin="round" id="icon-code">
        <polyline points="16 18 22 12 16 6"></polyline><polyline points="8 6 2 12 8 18"></polyline>
    </symbol>
    <symbol viewBox="0 0 24 24" xmlns="http://www.w3.org/2000/svg" xmlns:xlink="http://www.w3.org/1999/xlink" fill="none" stroke="currentcolor" stroke-width="1.5" stroke-linecap="round" stroke-linejoin="round" id="icon-loader">
        <line x1="12" y1="2" x2="12" y2="6"></line><line x1="12" y1="18" x2="12" y2="22"></line><line x1="4.93" y1="4.93" x2="7.76" y2="7.76"></line><line x1="16.24" y1="16.24" x2="19.07" y2="19.07"></line><line x1="2" y1="12" x2="6" y2="12"></line><line x1="18" y1="12" x2="22" y2="12"></line><line x1="4.93" y1="19.07" x2="7.76" y2="16.24"></line><line x1="16.24" y1="7.76" x2="19.07" y2="4.93"></line>
    </symbol>
    <symbol viewBox="0 0 32 32" style="enable-background:new 0 0 32 32;" xmlns="http://www.w3.org/2000/svg" xmlns:xlink="http://www.w3.org/1999/xlink" id="coin-algo">
        <circle cx="16" cy="16" r="15.5"/>
        <g id="lINT7W">
            <polygon fill="#FFFFFF" points="23.1,22.6 20.5,22.6 18.9,16.4 15.3,22.6 12.4,22.6 18,13 17.1,9.6 9.5,22.6 6.7,22.6 16.2,6.2 
                18.7,6.2 19.8,10.3 22.4,10.3 20.6,13.4"/>
        </g>
    </symbol>
    <symbol viewBox="0 0 32 32" style="enable-background:new 0 0 32 32;" xmlns="http://www.w3.org/2000/svg" xmlns:xlink="http://www.w3.org/1999/xlink" id="coin-usdc">
        <path fill-rule="evenodd" clip-rule="evenodd" d="M16.5 0C25.3368 0 32.5 7.16327 32.5 16C32.5 24.836 25.3368 32 16.5 32C7.6633 32 0.500031 24.836 0.500031 16C0.500031 7.16327 7.6633 0 16.5 0Z" fill="#2775CA"/>
        <path fill-rule="evenodd" clip-rule="evenodd" d="M13.5007 27.1244C13.5007 27.5007 13.206 27.7145 12.842 27.6009C8.00437 26.0576 4.49692 21.5214 4.49692 16.1691C4.49692 10.8169 8.00437 6.28054 12.842 4.73727C13.206 4.62436 13.5007 4.83745 13.5007 5.21381V6.1429C13.5007 6.39345 13.3066 6.68836 13.0678 6.76999C9.24037 8.17545 6.49855 11.8524 6.49855 16.1627C6.49855 20.4731 9.24037 24.1507 13.0678 25.5554C13.3066 25.6434 13.5007 25.9318 13.5007 26.1833V27.1244Z" fill="white"/>
        <path fill-rule="evenodd" clip-rule="evenodd" d="M17.4976 23.667C17.4976 23.9433 17.2717 24.1692 16.9957 24.1692H15.9979C15.7219 24.1692 15.4961 23.9433 15.4961 23.667V22.0861C13.3125 21.7913 12.2461 20.5675 11.9574 18.905C11.907 18.6223 12.1328 18.3652 12.4216 18.3652H13.5636C13.8019 18.3652 14.0028 18.5348 14.053 18.7728C14.2665 19.7643 14.8374 20.5235 16.5877 20.5235C17.8803 20.5235 18.7966 19.8019 18.7966 18.7232C18.7966 17.6435 18.2568 17.2359 16.3619 16.9219C13.5636 16.5455 12.2397 15.6983 12.2397 13.5023C12.2397 11.8083 13.5199 10.4908 15.5025 10.2083V8.65843C15.5025 8.38225 15.7285 8.15625 16.0043 8.15625H17.0021C17.2781 8.15625 17.5039 8.38225 17.5039 8.65843V10.2523C19.1165 10.5413 20.1392 11.4568 20.4719 12.9752C20.5345 13.2643 20.3086 13.5335 20.0139 13.5335H18.9596C18.7337 13.5335 18.5456 13.3828 18.4766 13.1633C18.1943 12.1975 17.5039 11.7835 16.3054 11.7835C14.9816 11.7835 14.2976 12.4233 14.2976 13.3204C14.2976 14.2679 14.6868 14.7444 16.7199 15.0399C19.4677 15.4163 20.8861 16.2004 20.8861 18.5413C20.8861 20.3168 19.5683 21.7537 17.5039 22.0861V23.667H17.4976Z" fill="white"/>
        <path fill-rule="evenodd" clip-rule="evenodd" d="M20.1581 27.6009C19.7944 27.7146 19.4993 27.5007 19.4993 27.1244V26.196C19.4993 25.9198 19.6688 25.6627 19.9322 25.5682C23.7597 24.1627 26.5015 20.4858 26.5015 16.1755C26.5015 11.8651 23.7597 8.18819 19.9322 6.78273C19.6939 6.69473 19.4993 6.40637 19.4993 6.15491V5.22655C19.4993 4.85019 19.7944 4.63073 20.1581 4.74928C24.9957 6.29346 28.5031 10.8296 28.5031 16.1818C28.4971 21.5213 24.9957 26.0513 20.1581 27.6009Z" fill="white"/>
    </symbol>
    <symbol viewBox="0 0 32 32" style="enable-background:new 0 0 32 32;" xmlns="http://www.w3.org/2000/svg" xmlns:xlink="http://www.w3.org/1999/xlink" id="coin-usdt">
        <g clip-path="url(#clip0)">
            <path d="M32.4713 15.9944C32.4713 24.7872 25.3438 31.9148 16.551 31.9148C7.75843 31.9148 0.630554 24.7872 0.630554 15.9944C0.630554 7.2017 7.75843 0.0739746 16.551 0.0739746C25.3438 0.0739746 32.4713 7.2017 32.4713 15.9944Z" fill="#1BA27A"/>
            <path d="M24.0229 8.10205H8.94785V11.7415H14.6657V17.0907H18.3051V11.7415H24.0229V8.10205Z" fill="white"/>
            <path d="M16.5199 17.6605C11.79 17.6605 7.95522 16.912 7.95522 15.9884C7.95522 15.065 11.7898 14.3163 16.5199 14.3163C21.2499 14.3163 25.0845 15.065 25.0845 15.9884C25.0845 16.912 21.2499 17.6605 16.5199 17.6605ZM26.1366 16.2672C26.1366 15.0763 21.8311 14.1111 16.5199 14.1111C11.2089 14.1111 6.90305 15.0763 6.90305 16.2672C6.90305 17.3159 10.2417 18.1896 14.6658 18.3832V26.0622H18.3049V18.3862C22.7631 18.1986 26.1366 17.3213 26.1366 16.2672Z" fill="white"/>
        </g>
        <defs>
            <clipPath id="clip0">
                <rect width="32" height="32" fill="white" transform="translate(0.5)"/>
            </clipPath>
        </defs>
    </symbol>
    <symbol viewBox="0 0 32 32" style="enable-background:new 0 0 32 32;" xmlns="http://www.w3.org/2000/svg" xmlns:xlink="http://www.w3.org/1999/xlink" id="coin-gobtc">
        <circle fill="#F7931A" cx="16" cy="16" r="14.4"/>
        <path fill="#1BFED7" d="M16,31.5c-8.6,0-15.5-7-15.5-15.5S7.4,0.5,16,0.5s15.5,7,15.5,15.5S24.6,31.5,16,31.5z M16,2.8
            C8.7,2.8,2.8,8.7,2.8,16S8.7,29.2,16,29.2S29.2,23.3,29.2,16S23.3,2.8,16,2.8z"/>
        <path fill="#FFFFFF" d="M22.4,13.9c0.3-1.9-1.2-3-3.2-3.7l0.7-2.6l-1.6-0.4l-0.6,2.6c-0.4-0.1-0.9-0.2-1.3-0.3L17,6.9l-1.6-0.4
            l-0.7,2.6c-0.3-0.1-0.7-0.2-1-0.2v0l-2.2-0.6L11.1,10c0,0,1.2,0.3,1.2,0.3c0.6,0.2,0.8,0.6,0.7,0.9l-0.7,3c0.1,0,0.1,0,0.2,0.1
            l-0.2,0l-1,4.2c-0.1,0.2-0.3,0.5-0.7,0.4c0,0-1.2-0.3-1.2-0.3l-0.8,1.8l2.1,0.5c0.4,0.1,0.8,0.2,1.1,0.3l-0.7,2.7l1.6,0.4l0.7-2.6
            c0.4,0.1,0.9,0.2,1.3,0.3L14,24.6l1.6,0.4l0.7-2.7c2.7,0.5,4.8,0.3,5.6-2.2c0.7-2,0-3.1-1.5-3.9C21.4,16,22.2,15.3,22.4,13.9z
            M18.8,19c-0.5,2-3.8,0.9-4.9,0.6l0.9-3.5C15.8,16.4,19.3,17,18.8,19L18.8,19z M19.3,13.9c-0.5,1.8-3.2,0.9-4.1,0.7l0.8-3.2
            C16.8,11.6,19.7,12,19.3,13.9L19.3,13.9z"/>
    </symbol>
    <symbol viewBox="0 0 32 32" style="enable-background:new 0 0 32 32;" xmlns="http://www.w3.org/2000/svg" xmlns:xlink="http://www.w3.org/1999/xlink" id="coin-goeth">
        <circle fill="#62688F" cx="16" cy="16" r="14.4"/>
        <path fill="#1BFED7" d="M16,31.5c-8.6,0-15.5-7-15.5-15.5S7.4,0.5,16,0.5s15.5,7,15.5,15.5S24.6,31.5,16,31.5z M16,2.8
            C8.7,2.8,2.8,8.7,2.8,16S8.7,29.2,16,29.2S29.2,23.3,29.2,16S23.3,2.8,16,2.8z"/>
        <polygon fill="#62688F" points="16,13 16,20.4 23.1,16.2 	"/>
        <polygon fill="#D3D3D3" points="16,13 16,4.5 23.1,16.2 	"/>
        <polygon fill="#FFFFFF" points="16,4.5 8.9,16.2 16,13 	"/>
        <polygon fill="#D3D3D3" points="8.9,16.2 16,20.4 16,13 	"/>
        <polygon fill="#FFFFFF" points="8.9,17.6 16,27.5 16,21.7 	"/>
        <polygon fill="#A7A7A7" points="16,21.7 23.1,17.6 16,27.5 	"/>
    </symbol>
    <symbol viewBox="0 0 32 32" style="enable-background:new 0 0 32 32;" xmlns="http://www.w3.org/2000/svg" xmlns:xlink="http://www.w3.org/1999/xlink" id="coin-xusd">
        <circle cx="16" cy="16" r="16"/>
        <path fill="#ececec" d="M31.89,16.94V15.62a.1.1,0,0,1,0,.09,6.86,6.86,0,0,1,0,1.11A.19.19,0,0,1,31.89,16.94Z" transform="translate(0 0)"/>
        <path fill="#ececec" d="M16.82,20.06v5.26s0,0,0,.06,0,0,0,0l-.1,0-.26-.12-1.16-.5-1.48-.65-1.33-.58c-.12-.05-.13-.06-.13-.18V17.53a0,0,0,0,0-.05,0l0,0-1,.6-1,.63L9,19.52,8.11,20l-1.37.83h0c-.17.1-.15.1-.32,0l-1.65-.72L3.18,19.5l-.66-.29a.87.87,0,0,1-.19-.1,0,0,0,0,1,0-.05l.05,0L2.49,19l1.65-1,1.24-.75,1.38-.83,1.38-.84,1.25-.75L10.77,14l1.38-.84.12-.08a.08.08,0,0,0,0-.07V3.11a.08.08,0,0,1,0,0s0,0,0,0h.07l.34.15,1,.44.83.36.92.41.86.37.29.13.08,0a.12.12,0,0,1,.05.07v5.2a0,0,0,0,0,.07,0l0,0,.07,0,.77-.46,1.08-.66,1.71-1,.94-.57.31-.18.07,0a.13.13,0,0,1,.12,0l.16.07,1.17.51,1.28.56,1.26.55L26,9l0,0a0,0,0,0,1,0,.05L26,9.1l-.47.29-1.36.83-.85.52-1.23.75-1,.61-1.22.74-.85.52-1.37.84-.71.43c-.16.1-.15.09-.15.27v5.16Z" transform="translate(0 0)"/>
        <path fill="#ececec" d="M26.25,9.11l0,0,.1.1,1.67,1.67,1.66,1.66.1.1a0,0,0,0,1,0,.07l-.07,0-.55.34-1.34.81-.86.53-1.22.74-1,.62c-.39.25-.79.49-1.19.73l-1,.62c-.39.25-.79.49-1.19.73l-.66.41-.07,0a.08.08,0,0,1-.08,0l-.09-.09-.72-.72-2.61-2.61A1.14,1.14,0,0,1,17,14.8a.06.06,0,0,1,0-.07l.07-.05.7-.42,1.34-.82.87-.53,1.2-.74,1-.61,1.23-.75.86-.52,1.35-.83.52-.31.06,0Z" transform="translate(0 0)"/>
        <path fill="#ececec" d="M16.93,20.22V15a.13.13,0,0,1,0-.06,0,0,0,0,1,0,0l0,0,.07.07,3.3,3.3.09.09a.11.11,0,0,1,0,.08v.07a.76.76,0,0,1,0,.15V28.92a.19.19,0,0,1,0,.08,0,0,0,0,1,0,0l0,0-.09-.09c-1.09-1.09-2.19-2.18-3.28-3.28,0,0,0,0,0-.05a.22.22,0,0,1-.08-.2V20.22Z" transform="translate(0 0)"/>
        <path fill="#ececec" d="M12.21,20.6v2.81a.17.17,0,0,1-.06.11l-.09.05-1,.62-.63.39c-.14.08-.14.08-.26,0L9,23.35,6.83,21.22l-.1-.12a.05.05,0,0,1,0-.09L6.81,21l.56-.34L8.7,19.8l.86-.52,1.37-.83.87-.54.28-.17.07,0s0,0,0,0,0,0,0,.05V20.6Z" transform="translate(0 0)"/>
        <path fill="#ececec" d="M20.22,29h-.08l-.93-.41L18,28l-1-.43-.8-.35-.07,0a.6.6,0,0,1-.23-.16L12.7,23.88l-.09-.11h0s0,0,0,0l.07,0,1.11.49,1.46.63,1,.44.43.18a.81.81,0,0,1,.26.18l3.17,3.17.09.1A0,0,0,0,1,20.22,29Z" transform="translate(0 0)"/>
        <path fill="#ececec" d="M9.93,24.49h0l-.07,0-.95-.41-.48-.21-.86-.37-1.47-.65a.67.67,0,0,1-.38-.25L2.61,19.5l-.11-.12a.06.06,0,0,1,0,0,0,0,0,0,1,0,0h0l.93.41.91.4.87.38L6.35,21a.68.68,0,0,1,.36.24l3.12,3.12.1.1Z" transform="translate(0 0)"/>
        <path fill="#ececec" d="M16.93,7.58V5.19a.08.08,0,0,1,0-.05h0l0,0,.08.07,2.83,2.83.1.11s0,.05,0,.06l-.09.06-.69.42L17.36,9.83l-.29.18-.08,0s0,0,0,0a.43.43,0,0,1,0,0V7.58Z" transform="translate(0 0)"/>
    </symbol>
</svg>