<?xml version="1.0" standalone="no"?>
<!DOCTYPE svg PUBLIC "-//W3C//DTD SVG 20010904//EN"
 "http://www.w3.org/TR/2001/REC-SVG-20010904/DTD/svg10.dtd">
<svg version="1.0" xmlns="http://www.w3.org/2000/svg"
 width="700.000000pt" height="700.000000pt" viewBox="0 0 700.000000 700.000000"
 preserveAspectRatio="xMidYMid meet">
<metadata>
Created by potrace 1.14, written by Peter Selinger 2001-2017
</metadata>
<g transform="translate(0.000000,700.000000) scale(0.100000,-0.100000)"
fill="#000000" stroke="none">
<path d="M2717 5829 c-113 -17 -196 -88 -242 -209 -16 -41 -30 -79 -31 -85 -2
-5 -39 -109 -84 -230 -45 -121 -92 -249 -104 -285 -13 -36 -117 -321 -231
-635 -113 -313 -208 -576 -210 -582 -4 -10 -112 -13 -498 -13 -558 0 -550 1
-636 -76 -127 -115 -127 -313 1 -429 87 -78 62 -76 798 -76 l652 0 41 27 c53
33 100 102 131 190 13 38 43 121 66 184 23 63 48 135 56 160 8 25 19 54 24 65
5 11 75 204 155 429 80 226 148 412 150 414 3 3 7 -1 10 -9 2 -8 91 -250 196
-539 105 -289 211 -579 234 -645 88 -245 123 -341 138 -380 9 -22 43 -116 77
-210 33 -93 65 -179 70 -190 4 -11 50 -135 100 -275 50 -140 100 -277 110
-305 11 -27 78 -211 149 -407 71 -196 137 -373 147 -394 24 -51 80 -103 143
-132 46 -21 63 -24 130 -20 84 5 121 20 182 75 49 44 59 63 110 206 22 61 47
128 54 147 8 19 43 116 79 215 35 99 71 198 79 220 9 22 54 146 101 275 170
472 298 824 313 861 l15 38 493 0 c476 1 495 1 547 22 198 77 245 341 86 484
-86 77 -60 75 -801 75 l-659 1 -43 -33 c-64 -48 -96 -109 -180 -343 -41 -115
-84 -232 -95 -260 -10 -27 -58 -158 -105 -290 -48 -132 -109 -303 -137 -379
l-51 -139 -28 74 c-98 263 -407 1100 -434 1174 -69 192 -176 481 -184 500 -5
11 -30 79 -56 150 -25 72 -51 141 -57 155 -5 14 -21 57 -35 95 -35 99 -162
443 -178 485 -8 19 -46 123 -86 230 -181 495 -184 500 -244 553 -56 49 -152
77 -228 66z"/>
</g>
</svg>
